<svg width="200" height="34" viewBox="0 0 200 34" fill="none" xmlns="http://www.w3.org/2000/svg">
<path d="M103.66 5.62028V7.01967C104.089 6.42918 104.572 6.00046 105.109 5.73083C105.644 5.4612 106.218 5.32638 106.834 5.32638C108.974 5.32638 110.043 6.50467 110.043 8.86396V15.203H107.94V9.19561C107.94 8.42176 107.8 7.8771 107.517 7.56433C107.233 7.25156 106.815 7.09517 106.262 7.09517C105.892 7.09517 105.552 7.15988 105.239 7.2893C104.926 7.41873 104.658 7.59399 104.437 7.81509C104.216 8.03619 104.04 8.29234 103.911 8.58084C103.781 8.86935 103.717 9.17404 103.717 9.4922V15.2057H101.633V5.62028H103.663H103.66ZM110.947 7.27852V5.62028H112.459V3.03989H114.542V5.62028H116.923V7.27852H114.542V12.291C114.542 12.7817 114.645 13.1376 114.847 13.3587C115.05 13.5798 115.349 13.6904 115.743 13.6904C115.951 13.6904 116.151 13.6796 116.342 13.6526C116.534 13.6284 116.72 13.5852 116.904 13.5232L117.217 15.0898C116.626 15.2866 115.986 15.3837 115.298 15.3837C114.24 15.3837 113.503 15.1113 113.085 14.564C112.666 14.0166 112.459 13.197 112.459 12.1049V7.27852H110.947ZM126.831 12.3638C126.658 13.3587 126.234 14.1299 125.557 14.6772C124.879 15.2246 123.908 15.4969 122.642 15.4969C121.117 15.4969 119.956 15.0574 119.165 14.1784C118.372 13.2994 117.975 12.0618 117.975 10.4656C117.975 9.6432 118.089 8.91249 118.315 8.27346C118.542 7.63443 118.863 7.09787 119.273 6.66106C119.686 6.22426 120.178 5.89261 120.75 5.66612C121.322 5.43962 121.951 5.32638 122.642 5.32638C123.379 5.32638 124.018 5.43962 124.561 5.66612C125.101 5.89261 125.551 6.21347 125.908 6.62331C126.264 7.03585 126.528 7.52658 126.701 8.0982C126.874 8.66982 126.96 9.30616 126.96 10.0045V10.9266H120.08C120.105 11.8003 120.326 12.5067 120.744 13.046C121.163 13.5879 121.797 13.8576 122.644 13.8576C123.308 13.8576 123.808 13.7281 124.14 13.4693C124.472 13.2104 124.693 12.8437 124.804 12.3638H126.833H126.831ZM124.912 9.47063C124.912 8.68331 124.728 8.06315 124.358 7.61017C123.989 7.15449 123.4 6.928 122.588 6.928C121.775 6.928 121.222 7.15719 120.817 7.61826C120.412 8.07933 120.178 8.69679 120.116 9.47063H124.912ZM130.704 15.9391C130.814 16.4541 131.033 16.8154 131.359 17.0176C131.686 17.2199 132.218 17.3223 132.955 17.3223C133.521 17.3223 133.975 17.2118 134.32 16.9907C134.666 16.7696 134.914 16.4325 135.068 15.9769C135.222 15.5212 135.297 14.8956 135.297 14.0975V13.4531C134.952 13.9438 134.523 14.3186 134.007 14.5775C133.492 14.8363 132.906 14.9657 132.256 14.9657C130.965 14.9657 129.967 14.5424 129.268 13.6931C128.566 12.8464 128.215 11.6708 128.215 10.1717C128.215 8.67252 128.596 7.53737 129.36 6.65297C130.121 5.76858 131.144 5.32638 132.423 5.32638C133.629 5.32638 134.606 5.81172 135.357 6.7824V5.62028H137.405V13.7659C137.405 15.6102 137.049 16.9395 136.336 17.7564C135.624 18.5734 134.498 18.9833 132.96 18.9833C131.57 18.9833 130.528 18.7406 129.832 18.2553C129.138 17.7699 128.728 16.9988 128.604 15.9418H130.706L130.704 15.9391ZM135.316 10.0611C135.316 9.06618 135.106 8.31391 134.69 7.8043C134.272 7.2947 133.656 7.03855 132.844 7.03855C132.08 7.03855 131.484 7.30548 131.054 7.83936C130.623 8.37323 130.409 9.14438 130.409 10.1528C130.409 11.1612 130.615 11.9189 131.028 12.4663C131.44 13.0136 132.015 13.2859 132.752 13.2859C133.565 13.2859 134.193 13.0298 134.644 12.5202C135.092 12.0106 135.316 11.288 135.316 10.355V10.0611ZM141.348 5.62028V7.03855C141.68 6.53433 142.08 6.14876 142.547 5.87643C143.014 5.6068 143.513 5.47198 144.042 5.47198C144.25 5.47198 144.425 5.47737 144.568 5.49085C144.709 5.50434 144.849 5.52051 144.984 5.54748L144.744 7.46457C144.599 7.42527 144.451 7.40088 144.301 7.39177C144.142 7.38098 143.975 7.37289 143.802 7.37289C143.408 7.37289 143.065 7.4376 142.768 7.56703C142.471 7.69645 142.223 7.86632 142.02 8.07394C141.818 8.28425 141.664 8.51883 141.559 8.78307C141.454 9.04731 141.402 9.31425 141.402 9.58388V15.2057H139.319V5.62028H141.348ZM151.88 13.9492C151.524 14.3806 151.086 14.7366 150.571 15.017C150.055 15.3001 149.426 15.4403 148.69 15.4403C148.234 15.4403 147.81 15.381 147.416 15.265C147.022 15.1491 146.682 14.9738 146.393 14.7393C146.104 14.5074 145.877 14.2081 145.71 13.8468C145.543 13.4855 145.462 13.0567 145.462 12.566C145.462 11.9027 145.61 11.3661 145.904 10.9536C146.198 10.5411 146.584 10.2202 147.057 9.98563C147.529 9.75375 148.061 9.58927 148.652 9.4976C149.243 9.40592 149.831 9.3466 150.422 9.32233L151.842 9.24953V8.84508C151.842 8.11977 151.667 7.61826 151.316 7.34323C150.965 7.06551 150.506 6.928 149.942 6.928C149.289 6.928 148.808 7.03855 148.493 7.25964C148.18 7.48074 147.972 7.80161 147.875 8.21684L145.956 8.01462C146.128 7.08169 146.552 6.39952 147.229 5.9681C147.907 5.53939 148.835 5.32368 150.015 5.32368C150.776 5.32368 151.408 5.42345 151.907 5.61758C152.406 5.81441 152.803 6.08405 153.097 6.42918C153.391 6.77431 153.599 7.18145 153.715 7.656C153.831 8.12786 153.891 8.64825 153.891 9.21448V15.203H151.88V13.9492ZM150.495 10.7244C149.869 10.7622 149.362 10.8296 148.973 10.9266C148.584 11.0264 148.287 11.1504 148.077 11.3041C147.866 11.4578 147.729 11.6358 147.661 11.838C147.592 12.0494 147.557 12.2707 147.559 12.4932C147.559 12.9111 147.691 13.2374 147.956 13.4693C148.22 13.7039 148.611 13.8198 149.127 13.8198C150.05 13.8198 150.733 13.5852 151.175 13.1188C151.618 12.6523 151.839 12.0187 151.839 11.2205V10.6678L150.493 10.7244H150.495ZM154.428 7.27852V5.62028H155.939V3.03989H158.023V5.62028H160.403V7.27852H158.023V12.291C158.023 12.7817 158.125 13.1376 158.328 13.3587C158.53 13.5798 158.83 13.6904 159.224 13.6904C159.432 13.6904 159.631 13.6796 159.823 13.6526C160.015 13.6284 160.201 13.5852 160.384 13.5232L160.697 15.0898C160.106 15.2866 159.467 15.3837 158.778 15.3837C157.72 15.3837 156.984 15.1113 156.565 14.564C156.147 14.0166 155.939 13.197 155.939 12.1049V7.27852H154.428ZM170.346 12.3638C170.174 13.3587 169.75 14.1299 169.072 14.6772C168.395 15.2246 167.423 15.4969 166.157 15.4969C164.633 15.4969 163.472 15.0574 162.681 14.1784C161.888 13.2994 161.491 12.0618 161.491 10.4656C161.491 9.6432 161.604 8.91249 161.831 8.27346C162.058 7.63443 162.379 7.09787 162.789 6.66106C163.202 6.22426 163.693 5.89261 164.265 5.66612C164.838 5.43962 165.467 5.32638 166.157 5.32638C166.894 5.32638 167.534 5.43962 168.076 5.66612C168.616 5.89261 169.067 6.21347 169.423 6.62331C169.779 7.03585 170.044 7.52658 170.217 8.0982C170.389 8.66982 170.476 9.30616 170.476 10.0045V10.9266H163.596C163.62 11.8003 163.842 12.5067 164.26 13.046C164.678 13.5879 165.313 13.8576 166.16 13.8576C166.824 13.8576 167.323 13.7281 167.655 13.4693C167.987 13.2104 168.209 12.8437 168.319 12.3638H170.349H170.346ZM168.427 9.47063C168.427 8.68331 168.244 8.06315 167.874 7.61017C167.504 7.15449 166.916 6.928 166.103 6.928C165.291 6.928 164.738 7.15719 164.333 7.61826C163.928 8.07933 163.693 8.69679 163.631 9.47063H168.427ZM178.851 13.8764C178.457 14.4184 178.011 14.8228 177.512 15.0925C177.013 15.3621 176.432 15.4969 175.769 15.4969C175.105 15.4969 174.484 15.3729 173.979 15.1275C173.474 14.8822 173.056 14.5343 172.724 14.0867C172.392 13.6392 172.144 13.1053 171.976 12.4824C171.809 11.8623 171.728 11.1774 171.728 10.4278C171.728 9.72678 171.815 9.07427 171.987 8.4649C172.16 7.85553 172.411 7.32975 172.743 6.87946C173.075 6.43187 173.482 6.07056 173.971 5.80093C174.457 5.5313 175.018 5.383 175.658 5.35873C175.779 5.34795 175.903 5.34256 176.028 5.35065C176.149 5.35604 176.279 5.36682 176.416 5.37761C176.845 5.42614 177.261 5.54748 177.661 5.73622C178.06 5.92766 178.443 6.24313 178.813 6.68533V2.04495H180.897V15.203H178.848V13.8764H178.851ZM178.832 10.2094C178.832 9.60815 178.767 9.10124 178.638 8.6887C178.508 8.27616 178.33 7.9526 178.103 7.71263C177.885 7.47801 177.613 7.30105 177.31 7.19763C177.004 7.09231 176.683 7.03943 176.36 7.04124C175.585 7.04124 174.986 7.31896 174.562 7.87171C174.138 8.42446 173.925 9.26571 173.925 10.3955C173.925 11.0102 173.985 11.5333 174.101 11.962C174.217 12.3935 174.384 12.7413 174.6 13.0136C174.816 13.2832 175.064 13.4801 175.347 13.6041C175.631 13.7281 175.939 13.7874 176.271 13.7874C177.032 13.7874 177.65 13.5394 178.125 13.0406C178.597 12.5417 178.835 11.7652 178.835 10.7082V10.2094H178.832ZM102.013 18.719C102.982 18.719 103.851 18.8512 104.623 19.1127C105.395 19.3769 106.051 19.776 106.591 20.3153C107.131 20.8545 107.544 21.5313 107.832 22.3429C108.121 23.1572 108.264 24.109 108.264 25.1983C108.264 26.2876 108.11 27.2448 107.805 28.0726C107.498 28.8977 107.058 29.5906 106.483 30.1461C105.908 30.7042 105.206 31.1221 104.378 31.4025C103.552 31.683 102.615 31.8259 101.576 31.8259H97.2767V18.7163H102.019L102.013 18.719ZM101.646 29.9357C102.418 29.9357 103.077 29.8252 103.622 29.6041C104.167 29.383 104.615 29.0648 104.963 28.6496C105.312 28.2344 105.568 27.7382 105.727 27.1612C105.886 26.5869 105.967 25.9371 105.967 25.2145C105.967 23.7692 105.66 22.6422 105.05 21.8279C104.437 21.0136 103.433 20.6065 102.035 20.6065H99.498V29.9331H101.649L101.646 29.9357ZM115.778 30.5802C115.422 31.0089 114.987 31.3648 114.475 31.6452C113.959 31.9256 113.336 32.0685 112.599 32.0685C112.145 32.0685 111.722 32.0092 111.33 31.8933C110.939 31.7773 110.599 31.6021 110.31 31.3702C110.021 31.1383 109.795 30.8417 109.63 30.4804C109.465 30.1191 109.382 29.6931 109.382 29.205C109.382 28.5444 109.527 28.0079 109.822 27.598C110.116 27.1882 110.499 26.8673 110.971 26.6354C111.444 26.4036 111.973 26.2418 112.561 26.1501C113.149 26.0584 113.738 25.9991 114.326 25.9748L115.74 25.902V25.4976C115.74 24.775 115.565 24.2762 115.217 24.0011C114.869 23.7261 114.41 23.5886 113.848 23.5886C113.198 23.5886 112.718 23.6991 112.405 23.9202C112.091 24.1413 111.886 24.4595 111.789 24.8747L109.878 24.6725C110.051 23.7423 110.472 23.0628 111.147 22.6341C111.822 22.2054 112.745 21.9924 113.921 21.9924C114.68 21.9924 115.309 22.0894 115.805 22.2863C116.302 22.4831 116.696 22.7527 116.99 23.0952C117.284 23.4376 117.489 23.8447 117.605 24.3166C117.722 24.7885 117.781 25.3062 117.781 25.867V31.834H115.778V30.5856V30.5802ZM114.399 27.3661C113.776 27.4039 113.268 27.4713 112.882 27.5684C112.496 27.6654 112.199 27.7922 111.992 27.9459C111.784 28.0995 111.646 28.2775 111.579 28.477C111.51 28.6877 111.477 28.9081 111.479 29.1295C111.479 29.5448 111.611 29.871 111.873 30.1029C112.137 30.3348 112.526 30.4507 113.039 30.4507C113.956 30.4507 114.637 30.2189 115.079 29.7524C115.519 29.2886 115.74 28.6577 115.74 27.8623V27.3122L114.399 27.3661ZM118.259 23.9337V22.2809H119.765V19.7113H121.84V22.2809H124.21V23.9337H121.84V28.9273C121.84 29.4181 121.94 29.7713 122.142 29.9924C122.345 30.2135 122.642 30.324 123.033 30.324C123.241 30.324 123.441 30.3132 123.63 30.2863C123.819 30.262 124.007 30.2189 124.191 30.1568L124.504 31.718C123.916 31.9148 123.279 32.0119 122.593 32.0119C121.541 32.0119 120.804 31.7396 120.388 31.1949C119.972 30.6503 119.762 29.8333 119.762 28.744V23.9337H118.256H118.259ZM130.922 30.5802C130.566 31.0089 130.131 31.3648 129.619 31.6452C129.103 31.9256 128.48 32.0685 127.743 32.0685C127.289 32.0685 126.866 32.0092 126.474 31.8933C126.083 31.7773 125.743 31.6021 125.454 31.3702C125.165 31.1383 124.939 30.8417 124.774 30.4804C124.609 30.1191 124.526 29.6931 124.526 29.205C124.526 28.5444 124.671 28.0079 124.966 27.598C125.26 27.1882 125.643 26.8673 126.115 26.6354C126.588 26.4036 127.117 26.2418 127.705 26.1501C128.293 26.0584 128.882 25.9991 129.47 25.9748L130.884 25.902V25.4976C130.884 24.775 130.709 24.2762 130.361 24.0011C130.013 23.7261 129.554 23.5886 128.992 23.5886C128.342 23.5886 127.862 23.6991 127.549 23.9202C127.235 24.1413 127.03 24.4595 126.933 24.8747L125.022 24.6725C125.195 23.7423 125.616 23.0628 126.291 22.6341C126.966 22.2054 127.889 21.9924 129.065 21.9924C129.824 21.9924 130.453 22.0894 130.949 22.2863C131.446 22.4831 131.84 22.7527 132.134 23.0952C132.428 23.4376 132.633 23.8447 132.749 24.3166C132.866 24.7885 132.925 25.3062 132.925 25.867V31.834H130.922V30.5856V30.5802ZM129.543 27.3661C128.92 27.4039 128.412 27.4713 128.026 27.5684C127.64 27.6654 127.343 27.7922 127.136 27.9459C126.928 28.0995 126.79 28.2775 126.723 28.477C126.654 28.6877 126.621 28.9081 126.623 29.1295C126.623 29.5448 126.755 29.871 127.017 30.1029C127.281 30.3348 127.67 30.4507 128.183 30.4507C129.1 30.4507 129.781 30.2189 130.223 29.7524C130.663 29.2886 130.884 28.6577 130.884 27.8623V27.3122L129.543 27.3661ZM140.973 27.8245C141.07 28.682 141.381 29.3048 141.902 29.6985C142.423 30.0894 143.197 30.2863 144.226 30.2863C144.728 30.2863 145.151 30.2323 145.494 30.1218C145.837 30.0112 146.112 29.8656 146.32 29.6823C146.528 29.4989 146.676 29.2805 146.76 29.0298C146.846 28.779 146.889 28.5121 146.889 28.2317C146.889 28.024 146.86 27.8191 146.798 27.6169C146.736 27.4147 146.625 27.2286 146.466 27.0561C146.306 26.8835 146.091 26.7352 145.823 26.6058C145.553 26.4764 145.211 26.3766 144.795 26.3038L143.122 25.991C142.46 25.8697 141.872 25.716 141.357 25.5326C140.841 25.3493 140.409 25.1066 140.061 24.8073C139.712 24.5086 139.441 24.1303 139.27 23.7045C139.092 23.2704 139.003 22.7419 139.003 22.1164C139.003 21.4909 139.127 20.9489 139.381 20.4824C139.632 20.0187 139.977 19.6277 140.42 19.3176C140.86 19.0048 141.384 18.773 141.991 18.6193C142.598 18.4656 143.257 18.3901 143.966 18.3901C144.873 18.3901 145.632 18.4952 146.244 18.7029C146.857 18.9105 147.354 19.1828 147.734 19.5198C148.115 19.8569 148.401 20.2451 148.598 20.6847C148.795 21.1242 148.93 21.5852 149.003 22.0625L146.908 22.3941C146.736 21.6607 146.439 21.1161 146.018 20.7601C145.594 20.4042 144.925 20.229 144.004 20.229C143.478 20.229 143.041 20.2748 142.69 20.3665C142.339 20.4582 142.058 20.5876 141.845 20.7521C141.632 20.9165 141.478 21.108 141.386 21.321C141.294 21.534 141.249 21.7578 141.249 21.9924C141.249 22.5667 141.405 22.9954 141.718 23.2785C142.031 23.5589 142.579 23.78 143.362 23.9391L145.181 24.2869C146.566 24.5431 147.583 24.9826 148.231 25.6001C148.881 26.2175 149.205 27.11 149.205 28.2721C149.205 28.8222 149.105 29.3345 148.903 29.8063C148.7 30.2782 148.39 30.688 147.974 31.0358C147.559 31.3837 147.041 31.6614 146.423 31.8609C145.804 32.0631 145.084 32.1629 144.263 32.1629C142.585 32.1629 141.267 31.8124 140.312 31.106C139.357 30.4022 138.83 29.3102 138.73 27.8299H140.973V27.8245ZM159.278 29.0001C159.105 29.9924 158.684 30.7608 158.009 31.3055C157.334 31.8501 156.368 32.1225 155.105 32.1225C153.586 32.1225 152.43 31.6857 151.64 30.8094C150.849 29.9331 150.455 28.7008 150.455 27.11C150.455 26.2903 150.568 25.5623 150.795 24.926C151.022 24.2896 151.34 23.7531 151.75 23.319C152.161 22.8849 152.652 22.5532 153.221 22.3267C153.791 22.1002 154.42 21.987 155.105 21.987C155.839 21.987 156.476 22.1002 157.016 22.3267C157.556 22.5532 158.001 22.8714 158.357 23.2812C158.714 23.6911 158.975 24.1818 159.148 24.7507C159.321 25.3196 159.405 25.9533 159.405 26.6516V27.5684H152.549C152.573 28.4366 152.795 29.1403 153.21 29.6796C153.626 30.2189 154.258 30.4885 155.102 30.4885C155.764 30.4885 156.26 30.3591 156.592 30.1029C156.924 29.8468 157.143 29.4774 157.254 29.0001H159.275H159.278ZM157.367 26.1177C157.367 25.3358 157.183 24.7157 156.816 24.2627C156.449 23.8097 155.861 23.5832 155.051 23.5832C154.241 23.5832 153.691 23.8124 153.286 24.2708C152.881 24.7291 152.649 25.3439 152.587 26.1151H157.364L157.367 26.1177ZM163.1 22.2809V23.6938C163.431 23.1922 163.828 22.8067 164.295 22.537C164.759 22.2674 165.256 22.1326 165.785 22.1326C165.993 22.1326 166.168 22.138 166.309 22.1515C166.449 22.1649 166.587 22.1811 166.722 22.2054L166.481 24.1144C166.338 24.0751 166.19 24.0507 166.041 24.0416C165.882 24.0308 165.718 24.0227 165.545 24.0227C165.153 24.0227 164.811 24.0874 164.516 24.2141C164.222 24.3436 163.974 24.5107 163.772 24.7184C163.569 24.926 163.415 25.1632 163.313 25.4248C163.207 25.689 163.156 25.9533 163.156 26.2229V31.8232H161.081V22.2755H163.102L163.1 22.2809ZM169.661 22.2809L172.141 29.4774L174.659 22.2809H176.975L173.169 31.8286H171.018L167.232 22.2809H169.658H169.661ZM180.081 18.719V20.7925H177.914V18.719H180.081ZM180.044 22.2809V31.8286H177.949V22.2809H180.044ZM190.133 28.4851C190.011 29.623 189.604 30.5128 188.91 31.1572C188.216 31.7989 187.228 32.1198 185.941 32.1198C185.169 32.1198 184.497 32.0011 183.928 31.7612C183.358 31.5212 182.883 31.1841 182.502 30.7419C182.122 30.3024 181.841 29.7713 181.658 29.1538C181.474 28.5364 181.382 27.8461 181.382 27.0884C181.382 26.3308 181.488 25.6351 181.696 25.0042C181.903 24.3732 182.206 23.8367 182.605 23.3891C183.002 22.9415 183.49 22.5963 184.065 22.351C184.64 22.1056 185.296 21.9843 186.033 21.9843C186.708 21.9843 187.277 22.0733 187.741 22.2512C188.205 22.4292 188.591 22.6665 188.899 22.9684C189.204 23.2677 189.444 23.6129 189.617 24.0065C189.79 24.3975 189.911 24.8073 189.984 25.236L187.909 25.5488C187.811 25.0096 187.622 24.5647 187.347 24.2087C187.072 23.8528 186.608 23.6776 185.96 23.6776C185.493 23.6776 185.107 23.7746 184.802 23.9715C184.5 24.1633 184.248 24.425 184.068 24.7345C183.884 25.0473 183.752 25.4059 183.674 25.8077C183.593 26.2121 183.555 26.622 183.555 27.0372C183.555 27.5144 183.598 27.962 183.685 28.3773C183.771 28.7925 183.906 29.1511 184.09 29.4504C184.273 29.7497 184.519 29.9897 184.824 30.1676C185.129 30.3456 185.504 30.4346 185.944 30.4346C186.581 30.4346 187.064 30.2674 187.396 29.9304C187.728 29.5933 187.936 29.1134 188.022 28.4878H190.135L190.133 28.4851ZM199.873 29.0001C199.7 29.9924 199.279 30.7608 198.605 31.3055C197.93 31.8501 196.964 32.1225 195.701 32.1225C194.181 32.1225 193.026 31.6857 192.235 30.8094C191.444 29.9331 191.05 28.7008 191.05 27.11C191.05 26.2903 191.164 25.5623 191.39 24.926C191.617 24.2896 191.935 23.7531 192.346 23.319C192.756 22.8849 193.247 22.5532 193.817 22.3267C194.386 22.1002 195.015 21.987 195.701 21.987C196.435 21.987 197.072 22.1002 197.611 22.3267C198.151 22.5532 198.597 22.8714 198.953 23.2812C199.309 23.6911 199.571 24.1818 199.744 24.7507C199.914 25.3196 200 25.9533 200 26.6516V27.5684H193.145C193.169 28.4366 193.39 29.1403 193.806 29.6796C194.221 30.2189 194.853 30.4885 195.698 30.4885C196.359 30.4885 196.856 30.3591 197.188 30.1029C197.52 29.8468 197.738 29.4774 197.849 29.0001H199.87H199.873ZM197.962 26.1177C197.962 25.3358 197.779 24.7157 197.412 24.2627C197.045 23.8097 196.456 23.5832 195.647 23.5832C194.837 23.5832 194.286 23.8124 193.881 24.2708C193.477 24.7291 193.244 25.3439 193.182 26.1151H197.96L197.962 26.1177ZM97.3037 1.95867H99.5277V15.203H97.3037V1.95867Z" fill="black"/>
<path d="M63.4423 20.6415C61.8418 22.2405 53.7637 30.3106 52.1605 31.9095C51.4507 32.6186 50.6437 33.0554 49.5857 32.9961C48.166 32.9179 47.1458 32.2951 46.6006 30.9739C46.0311 29.5906 46.3118 28.3476 47.3482 27.2907C48.973 25.6351 57.0996 17.5354 58.7406 15.896C60.3546 14.2836 63.7068 10.9267 65.3288 9.32236C66.6163 8.04969 68.6918 8.03082 70.0116 9.26304C71.2882 10.4575 71.3638 12.6847 70.1384 13.9331C68.5001 15.5994 63.4423 20.6334 63.4423 20.6361V20.6415Z" fill="url(#paint0_linear_575_1168)"/>
<path style="mix-blend-mode:multiply" d="M55.6773 27.0156C57.5226 27.0156 59.0186 25.5211 59.0186 23.6776C59.0186 21.834 57.5226 20.3395 55.6773 20.3395C53.8319 20.3395 52.3359 21.834 52.3359 23.6776C52.3359 25.5211 53.8319 27.0156 55.6773 27.0156Z" fill="url(#paint1_linear_575_1168)"/>
<path style="mix-blend-mode:multiply" d="M61.7716 20.93C63.6169 20.93 65.1129 19.4355 65.1129 17.592C65.1129 15.7484 63.6169 14.2539 61.7716 14.2539C59.9262 14.2539 58.4302 15.7484 58.4302 17.592C58.4302 19.4355 59.9262 20.93 61.7716 20.93Z" fill="url(#paint2_linear_575_1168)"/>
<path d="M72.0979 20.6307C73.6984 22.2297 81.7765 30.2998 83.3797 31.8987C84.0895 32.6078 84.8965 33.0446 85.9545 32.9853C87.3742 32.9071 88.3944 32.2843 88.9396 30.9631C89.509 29.5798 89.2284 28.3368 88.1919 27.2799C86.5672 25.6243 78.4405 17.5246 76.7995 15.8852C75.1855 14.2728 71.8334 10.9159 70.2113 9.31156C68.9239 8.03889 66.8484 8.02002 65.5286 9.25224C64.252 10.4467 64.1764 12.6739 65.4017 13.9223C67.04 15.5886 72.0979 20.6226 72.0979 20.6253V20.6307Z" fill="url(#paint3_linear_575_1168)"/>
<path style="mix-blend-mode:multiply" d="M79.8629 27.0075C81.7083 27.0075 83.2042 25.513 83.2042 23.6695C83.2042 21.8259 81.7083 20.3314 79.8629 20.3314C78.0175 20.3314 76.5215 21.8259 76.5215 23.6695C76.5215 25.513 78.0175 27.0075 79.8629 27.0075Z" fill="url(#paint4_linear_575_1168)"/>
<path style="mix-blend-mode:multiply" d="M73.7686 20.9193C75.614 20.9193 77.1099 19.4248 77.1099 17.5812C77.1099 15.7376 75.614 14.2432 73.7686 14.2432C71.9232 14.2432 70.4272 15.7376 70.4272 17.5812C70.4272 19.4248 71.9232 20.9193 73.7686 20.9193Z" fill="url(#paint5_linear_575_1168)"/>
<path style="mix-blend-mode:multiply" d="M67.5096 8.36514C66.7917 8.43525 66.0927 8.73184 65.5313 9.25763C64.2547 10.4521 64.1791 12.6793 65.4044 13.9277C65.9334 14.4669 66.8187 15.3567 67.7768 16.3139C68.7296 15.3594 69.6121 14.475 70.1384 13.9384C71.3665 12.6901 71.2882 10.4629 70.0116 9.26841C69.3125 8.6159 68.403 8.31661 67.5096 8.36514Z" fill="url(#paint6_linear_575_1168)"/>
<path d="M59.213 13.2859C57.6125 14.8849 49.5345 22.955 47.9313 24.5539C47.2214 25.263 46.4144 25.6998 45.3564 25.6405C43.9368 25.5623 42.9165 24.9395 42.3714 23.6183C41.8019 22.2351 42.0826 20.992 43.119 19.9351C44.7438 18.2795 52.8704 10.1798 54.5114 8.54041C56.1254 6.92801 59.4775 3.57108 61.0996 1.96677C62.387 0.694102 64.4625 0.675228 65.7823 1.90745C67.0589 3.10192 67.1345 5.32909 65.9092 6.57749C64.2709 8.24382 59.213 13.2779 59.213 13.2806V13.2859Z" fill="url(#paint7_linear_575_1168)"/>
<path style="mix-blend-mode:multiply" d="M51.448 19.6601C53.2934 19.6601 54.7894 18.1656 54.7894 16.322C54.7894 14.4785 53.2934 12.984 51.448 12.984C49.6027 12.984 48.1067 14.4785 48.1067 16.322C48.1067 18.1656 49.6027 19.6601 51.448 19.6601Z" fill="url(#paint8_linear_575_1168)"/>
<path style="mix-blend-mode:multiply" d="M57.5423 13.5744C59.3877 13.5744 60.8837 12.0799 60.8837 10.2364C60.8837 8.39283 59.3877 6.89833 57.5423 6.89833C55.697 6.89833 54.201 8.39283 54.201 10.2364C54.201 12.0799 55.697 13.5744 57.5423 13.5744Z" fill="url(#paint9_linear_575_1168)"/>
<path d="M37.0921 20.8465C38.6926 22.4454 41.8099 25.5569 43.4104 27.1586C44.1203 27.8677 44.5575 28.6739 44.4981 29.7309C44.4199 31.1491 43.7964 32.1683 42.4739 32.713C41.0893 33.2819 39.8451 33.0015 38.7871 31.9661C37.1299 30.3429 33.9856 27.1828 32.3446 25.5435C30.7306 23.9311 27.3704 20.5822 25.7645 18.9617C24.4906 17.6756 24.4717 15.6021 25.7051 14.2836C26.9008 13.0082 29.1301 12.9327 30.3797 14.1569C32.0477 15.7935 37.0867 20.8465 37.0894 20.8465H37.0921Z" fill="url(#paint10_linear_575_1168)"/>
<path style="mix-blend-mode:multiply" d="M34.6549 26.4683C36.5003 26.4683 37.9963 24.9738 37.9963 23.1302C37.9963 21.2867 36.5003 19.7922 34.6549 19.7922C32.8096 19.7922 31.3136 21.2867 31.3136 23.1302C31.3136 24.9738 32.8096 26.4683 34.6549 26.4683Z" fill="url(#paint11_linear_575_1168)"/>
<path d="M7.41138 20.8465C5.81088 22.4454 2.69356 25.5569 1.09306 27.1586C0.383231 27.8677 -0.0540041 28.6766 0.00537348 29.7309C0.083644 31.1491 0.707109 32.1683 2.02961 32.713C3.41419 33.2819 4.65842 33.0015 5.71642 31.9661C7.3736 30.3429 10.5179 27.1828 12.1589 25.5435C13.7729 23.9311 17.1331 20.5822 18.739 18.9617C20.0129 17.6756 20.0318 15.6021 18.7984 14.2836C17.6027 13.0082 15.3734 12.9327 14.1238 14.1569C12.4558 15.7935 7.41678 20.8465 7.41408 20.8465H7.41138Z" fill="url(#paint12_linear_575_1168)"/>
<path style="mix-blend-mode:multiply" d="M9.84854 26.4683C11.6939 26.4683 13.1899 24.9738 13.1899 23.1302C13.1899 21.2867 11.6939 19.7922 9.84854 19.7922C8.00317 19.7922 6.5072 21.2867 6.5072 23.1302C6.5072 24.9738 8.00317 26.4683 9.84854 26.4683Z" fill="url(#paint13_linear_575_1168)"/>
<path d="M25.4865 20.8465C27.087 22.4454 30.2043 25.5569 31.8048 27.1586C32.5146 27.8677 32.9519 28.6739 32.8925 29.7309C32.8142 31.1491 32.1907 32.1683 30.8682 32.713C29.4837 33.2819 28.2394 33.0015 27.1814 31.9661C25.5243 30.3429 22.3799 27.1828 20.739 25.5435C19.125 23.9311 15.7647 20.5822 14.1588 18.9617C12.8849 17.6756 12.866 15.6021 14.0995 14.2836C15.2951 13.0082 17.5245 12.9327 18.7741 14.1569C20.4421 15.7935 25.4811 20.8465 25.4838 20.8465H25.4865Z" fill="url(#paint14_linear_575_1168)"/>
<path style="mix-blend-mode:multiply" d="M23.0493 26.4683C24.8947 26.4683 26.3906 24.9738 26.3906 23.1302C26.3906 21.2867 24.8947 19.7922 23.0493 19.7922C21.2039 19.7922 19.7079 21.2867 19.7079 23.1302C19.7079 24.9738 21.2039 26.4683 23.0493 26.4683Z" fill="url(#paint15_linear_575_1168)"/>
<path style="mix-blend-mode:multiply" d="M16.4934 13.2833H16.4071C15.5488 13.3129 14.6986 13.65 14.1048 14.2836C12.8714 15.5994 12.8876 17.6729 14.1642 18.9617C14.7499 19.5522 15.5704 20.3746 16.453 21.259C17.3355 20.3773 18.156 19.5549 18.7417 18.9617C20.0156 17.6756 20.0345 15.6021 18.8011 14.2836C18.2073 13.65 17.3571 13.3129 16.4988 13.2833H16.4934Z" fill="url(#paint16_linear_575_1168)"/>
<defs>
<linearGradient id="paint0_linear_575_1168" x1="58.6624" y1="8.35707" x2="58.6624" y2="33.0015" gradientUnits="userSpaceOnUse">
<stop offset="0.49" stop-color="#E06C00"/>
<stop offset="1" stop-color="#F6921E"/>
</linearGradient>
<linearGradient id="paint1_linear_575_1168" x1="53.7283" y1="21.7322" x2="58.4509" y2="26.4595" gradientUnits="userSpaceOnUse">
<stop offset="0.49" stop-color="#E06C00"/>
<stop offset="1" stop-color="#F6921E"/>
</linearGradient>
<linearGradient id="paint2_linear_575_1168" x1="59.822" y1="15.6444" x2="64.5446" y2="20.3717" gradientUnits="userSpaceOnUse">
<stop offset="0.49" stop-color="#E06C00"/>
<stop offset="1" stop-color="#F6921E"/>
</linearGradient>
<linearGradient id="paint3_linear_575_1168" x1="76.8778" y1="8.34627" x2="76.8778" y2="32.9934" gradientUnits="userSpaceOnUse">
<stop offset="0.49" stop-color="#E06C00"/>
<stop offset="1" stop-color="#F6921E"/>
</linearGradient>
<linearGradient id="paint4_linear_575_1168" x1="81.8078" y1="21.7224" x2="77.0871" y2="26.4478" gradientUnits="userSpaceOnUse">
<stop offset="0.49" stop-color="#E06C00"/>
<stop offset="1" stop-color="#F6921E"/>
</linearGradient>
<linearGradient id="paint5_linear_575_1168" x1="75.716" y1="15.6366" x2="70.9953" y2="20.362" gradientUnits="userSpaceOnUse">
<stop offset="0.49" stop-color="#E06C00"/>
<stop offset="1" stop-color="#F6921E"/>
</linearGradient>
<linearGradient id="paint6_linear_575_1168" x1="3739.71" y1="0.254594" x2="3733.22" y2="0.254594" gradientUnits="userSpaceOnUse">
<stop offset="0.49" stop-color="#E06C00"/>
<stop offset="1" stop-color="#F6921E"/>
</linearGradient>
<linearGradient id="paint7_linear_575_1168" x1="54.4331" y1="1.00148" x2="54.4331" y2="25.6459" gradientUnits="userSpaceOnUse">
<stop offset="0.04" stop-color="#7E9B04"/>
<stop offset="1" stop-color="#008837"/>
</linearGradient>
<linearGradient id="paint8_linear_575_1168" x1="49.4992" y1="14.3766" x2="54.2218" y2="19.1038" gradientUnits="userSpaceOnUse">
<stop offset="0.04" stop-color="#7E9B04"/>
<stop offset="1" stop-color="#008837"/>
</linearGradient>
<linearGradient id="paint9_linear_575_1168" x1="55.5929" y1="8.2888" x2="60.3155" y2="13.0161" gradientUnits="userSpaceOnUse">
<stop offset="0.04" stop-color="#7E9B04"/>
<stop offset="1" stop-color="#008837"/>
</linearGradient>
<linearGradient id="paint10_linear_575_1168" x1="24.7956" y1="23.141" x2="44.5035" y2="23.141" gradientUnits="userSpaceOnUse">
<stop offset="0.04" stop-color="#7E9B04"/>
<stop offset="1" stop-color="#008837"/>
</linearGradient>
<linearGradient id="paint11_linear_575_1168" x1="31.902" y1="23.1302" x2="36.7413" y2="23.1302" gradientUnits="userSpaceOnUse">
<stop offset="0.04" stop-color="#7E9B04"/>
<stop offset="0.18" stop-color="#759907"/>
<stop offset="0.39" stop-color="#5E9610"/>
<stop offset="0.66" stop-color="#38901F"/>
<stop offset="0.97" stop-color="#058834"/>
<stop offset="1" stop-color="#008837"/>
</linearGradient>
<linearGradient id="paint12_linear_575_1168" x1="19.7079" y1="23.141" x2="-2.46684e-05" y2="23.141" gradientUnits="userSpaceOnUse">
<stop stop-color="#3F0055"/>
<stop offset="0.05" stop-color="#470064"/>
<stop offset="0.22" stop-color="#600093"/>
<stop offset="0.38" stop-color="#7400BA"/>
<stop offset="0.54" stop-color="#8400D8"/>
<stop offset="0.7" stop-color="#8F00ED"/>
<stop offset="0.86" stop-color="#9600FA"/>
<stop offset="1" stop-color="#9900FF"/>
</linearGradient>
<linearGradient id="paint13_linear_575_1168" x1="9.84854" y1="20.6793" x2="9.84854" y2="27.3581" gradientUnits="userSpaceOnUse">
<stop stop-color="#3F0055"/>
<stop offset="0.16" stop-color="#4A006A"/>
<stop offset="0.49" stop-color="#6700A1"/>
<stop offset="0.97" stop-color="#9500F8"/>
<stop offset="1" stop-color="#9900FF"/>
</linearGradient>
<linearGradient id="paint14_linear_575_1168" x1="13.1899" y1="23.141" x2="32.8979" y2="23.141" gradientUnits="userSpaceOnUse">
<stop stop-color="#3F0055"/>
<stop offset="0.05" stop-color="#470064"/>
<stop offset="0.22" stop-color="#600093"/>
<stop offset="0.38" stop-color="#7400BA"/>
<stop offset="0.54" stop-color="#8400D8"/>
<stop offset="0.7" stop-color="#8F00ED"/>
<stop offset="0.86" stop-color="#9600FA"/>
<stop offset="1" stop-color="#9900FF"/>
</linearGradient>
<linearGradient id="paint15_linear_575_1168" x1="23.0493" y1="19.7167" x2="23.0493" y2="26.3928" gradientUnits="userSpaceOnUse">
<stop stop-color="#3F0055"/>
<stop offset="0.24" stop-color="#400057"/>
<stop offset="0.4" stop-color="#450060"/>
<stop offset="0.53" stop-color="#4C006F"/>
<stop offset="0.64" stop-color="#570084"/>
<stop offset="0.75" stop-color="#66009F"/>
<stop offset="0.86" stop-color="#7800C0"/>
<stop offset="0.95" stop-color="#8C00E7"/>
<stop offset="1" stop-color="#9900FF"/>
</linearGradient>
<linearGradient id="paint16_linear_575_1168" x1="16.4476" y1="12.6038" x2="16.4476" y2="19.1127" gradientUnits="userSpaceOnUse">
<stop stop-color="#3F0055"/>
<stop offset="0.12" stop-color="#42005C"/>
<stop offset="0.29" stop-color="#4D0070"/>
<stop offset="0.49" stop-color="#5E0090"/>
<stop offset="0.72" stop-color="#7600BD"/>
<stop offset="0.97" stop-color="#9400F7"/>
<stop offset="1" stop-color="#9900FF"/>
</linearGradient>
</defs>
</svg>
